<svg width="1373" height="337" viewBox="0 0 1373 337" fill="none" xmlns="http://www.w3.org/2000/svg">
<g clip-path="url(#clip0_901_2)">
<rect x="279.167" y="279.167" width="279.167" height="55.8333" rx="24" transform="rotate(-90 279.167 279.167)" fill="#36E452"/>
<rect y="335" width="279.167" height="55.8333" rx="24" transform="rotate(-90 0 335)" fill="#36E452"/>
<rect x="279.167" y="55.8333" width="223.333" height="55.8333" rx="24" transform="rotate(180 279.167 55.8333)" fill="#36E452"/>
<rect x="279.167" y="335" width="279.167" height="55.8333" rx="24" transform="rotate(180 279.167 335)" fill="#36E452"/>
<rect x="223.333" y="279.167" width="55.8333" height="111.667" rx="24" transform="rotate(-90 223.333 279.167)" fill="#36E452"/>
<rect x="223.333" y="111.667" width="55.8333" height="111.667" rx="24" transform="rotate(-90 223.333 111.667)" fill="#36E452"/>
<rect y="111.667" width="55.8333" height="111.667" rx="24" transform="rotate(-90 0 111.667)" fill="#36E452"/>
<rect x="223.333" y="55.8333" width="55.8333" height="111.667" rx="24" transform="rotate(-90 223.333 55.8333)" fill="#36E452"/>
<rect y="279.167" width="55.8333" height="111.667" rx="24" transform="rotate(-90 0 279.167)" fill="#36E452"/>
<rect x="111.667" y="111.667" width="55.8333" height="111.667" rx="24" transform="rotate(180 111.667 111.667)" fill="#36E452"/>
<rect x="111.667" y="335" width="55.8333" height="111.667" rx="24" transform="rotate(180 111.667 335)" fill="#36E452"/>
<rect x="279.167" y="335" width="55.8333" height="111.667" rx="24" transform="rotate(180 279.167 335)" fill="#36E452"/>
<rect x="279.167" y="111.667" width="55.8333" height="111.667" rx="24" transform="rotate(180 279.167 111.667)" fill="#36E452"/>
<path d="M505.186 97.032H527.203V217.416C527.203 229.845 524.273 240.942 518.414 250.707C512.614 260.414 504.416 268.078 493.822 273.701C483.228 279.264 470.799 282.046 456.535 282.046C442.272 282.046 429.843 279.264 419.248 273.701C408.654 268.078 400.427 260.414 394.568 250.707C388.768 240.942 385.868 229.845 385.868 217.416V97.032H407.885V215.64C407.885 224.518 409.838 232.419 413.744 239.344C417.65 246.209 423.214 251.625 430.434 255.59C437.714 259.496 446.415 261.45 456.535 261.45C466.656 261.45 475.356 259.496 482.636 255.59C489.916 251.625 495.479 246.209 499.326 239.344C503.233 232.419 505.186 224.518 505.186 215.64V97.032ZM569.281 196.819V278.85H548.329V142.487H568.571V163.793H570.347C573.543 156.869 578.396 151.305 584.906 147.103C591.417 142.842 599.821 140.711 610.119 140.711C619.352 140.711 627.431 142.605 634.356 146.393C641.28 150.121 646.666 155.803 650.513 163.438C654.36 171.014 656.284 180.602 656.284 192.202V278.85H635.332V193.623C635.332 182.91 632.551 174.565 626.987 168.587C621.424 162.55 613.789 159.532 604.082 159.532C597.394 159.532 591.417 160.982 586.149 163.882C580.941 166.782 576.827 171.014 573.809 176.577C570.79 182.141 569.281 188.888 569.281 196.819ZM733.874 142.487V160.242H663.206V142.487H733.874ZM683.803 109.816H704.754V239.788C704.754 245.706 705.613 250.145 707.329 253.104C709.104 256.005 711.354 257.958 714.076 258.964C716.858 259.911 719.787 260.384 722.865 260.384C725.173 260.384 727.067 260.266 728.547 260.029C730.027 259.733 731.21 259.496 732.098 259.319L736.359 278.14C734.939 278.673 732.956 279.205 730.411 279.738C727.866 280.33 724.641 280.626 720.734 280.626C714.816 280.626 709.016 279.353 703.334 276.808C697.711 274.263 693.036 270.387 689.307 265.178C685.637 259.97 683.803 253.4 683.803 245.47V109.816ZM801.098 281.691C787.959 281.691 776.625 278.791 767.096 272.991C757.627 267.131 750.317 258.964 745.168 248.488C740.078 237.953 737.533 225.702 737.533 211.734C737.533 197.766 740.078 185.455 745.168 174.802C750.317 164.089 757.479 155.744 766.652 149.766C775.885 143.729 786.657 140.711 798.968 140.711C806.07 140.711 813.084 141.895 820.008 144.262C826.933 146.63 833.236 150.477 838.918 155.803C844.6 161.071 849.128 168.055 852.501 176.755C855.875 185.455 857.562 196.168 857.562 208.893V217.771H752.448V199.66H836.255C836.255 191.966 834.716 185.1 831.638 179.063C828.62 173.026 824.299 168.262 818.677 164.77C813.113 161.278 806.544 159.532 798.968 159.532C790.623 159.532 783.402 161.603 777.306 165.746C771.269 169.83 766.623 175.157 763.368 181.727C760.112 188.296 758.485 195.339 758.485 202.856V214.93C758.485 225.228 760.26 233.958 763.812 241.119C767.422 248.222 772.423 253.637 778.815 257.366C785.207 261.035 792.635 262.87 801.098 262.87C806.603 262.87 811.574 262.101 816.013 260.562C820.511 258.964 824.388 256.596 827.643 253.46C830.898 250.264 833.414 246.298 835.189 241.563L855.431 247.245C853.3 254.111 849.719 260.148 844.689 265.356C839.658 270.505 833.443 274.53 826.045 277.43C818.647 280.271 810.331 281.691 801.098 281.691ZM869.433 278.85V142.487H889.674V163.083H891.095C893.581 156.336 898.079 150.861 904.589 146.659C911.1 142.457 918.439 140.356 926.606 140.356C928.145 140.356 930.069 140.385 932.377 140.445C934.685 140.504 936.431 140.593 937.615 140.711V162.018C936.905 161.84 935.277 161.574 932.732 161.219C930.246 160.804 927.612 160.597 924.831 160.597C918.202 160.597 912.283 161.988 907.075 164.77C901.926 167.492 897.842 171.28 894.824 176.134C891.864 180.928 890.385 186.402 890.385 192.558V278.85H869.433ZM945.291 278.85V97.032H1055.02V116.563H967.309V177.998H1049.34V197.529H967.309V259.319H1056.44V278.85H945.291ZM1111.99 282.046C1103.35 282.046 1095.51 280.419 1088.47 277.163C1081.42 273.849 1075.83 269.085 1071.69 262.87C1067.54 256.596 1065.47 249.021 1065.47 240.143C1065.47 232.33 1067.01 225.997 1070.09 221.144C1073.17 216.232 1077.28 212.385 1082.43 209.603C1087.58 206.821 1093.26 204.75 1099.47 203.389C1105.75 201.968 1112.05 200.844 1118.38 200.015C1126.67 198.95 1133.39 198.151 1138.54 197.618C1143.75 197.026 1147.53 196.05 1149.9 194.688C1152.33 193.327 1153.54 190.96 1153.54 187.586V186.876C1153.54 178.116 1151.14 171.31 1146.35 166.457C1141.61 161.604 1134.42 159.177 1124.78 159.177C1114.77 159.177 1106.93 161.367 1101.25 165.746C1095.57 170.126 1091.57 174.802 1089.27 179.773L1069.38 172.671C1072.93 164.385 1077.66 157.934 1083.58 153.318C1089.56 148.642 1096.07 145.387 1103.11 143.552C1110.22 141.658 1117.2 140.711 1124.07 140.711C1128.45 140.711 1133.48 141.244 1139.16 142.309C1144.9 143.315 1150.43 145.416 1155.76 148.612C1161.15 151.808 1165.61 156.632 1169.17 163.083C1172.72 169.534 1174.49 178.175 1174.49 189.006V278.85H1153.54V260.384H1152.48C1151.05 263.344 1148.69 266.51 1145.37 269.884C1142.06 273.257 1137.65 276.128 1132.15 278.495C1126.64 280.862 1119.92 282.046 1111.99 282.046ZM1115.19 263.225C1123.47 263.225 1130.46 261.598 1136.14 258.342C1141.88 255.087 1146.2 250.885 1149.1 245.736C1152.06 240.587 1153.54 235.171 1153.54 229.489V210.313C1152.65 211.379 1150.7 212.355 1147.68 213.243C1144.72 214.072 1141.29 214.811 1137.38 215.462C1133.54 216.054 1129.78 216.587 1126.11 217.06C1122.5 217.475 1119.57 217.83 1117.32 218.126C1111.87 218.836 1106.78 219.99 1102.05 221.588C1097.37 223.127 1093.59 225.465 1090.69 228.602C1087.84 231.679 1086.42 235.881 1086.42 241.208C1086.42 248.488 1089.12 253.992 1094.5 257.721C1099.95 261.39 1106.84 263.225 1115.19 263.225ZM1252.04 142.487V160.242H1181.37V142.487H1252.04ZM1201.97 109.816H1222.92V239.788C1222.92 245.706 1223.78 250.145 1225.49 253.104C1227.27 256.005 1229.52 257.958 1232.24 258.964C1235.02 259.911 1237.95 260.384 1241.03 260.384C1243.34 260.384 1245.23 260.266 1246.71 260.029C1248.19 259.733 1249.37 259.496 1250.26 259.319L1254.52 278.14C1253.1 278.673 1251.12 279.205 1248.58 279.738C1246.03 280.33 1242.8 280.626 1238.9 280.626C1232.98 280.626 1227.18 279.353 1221.5 276.808C1215.88 274.263 1211.2 270.387 1207.47 265.178C1203.8 259.97 1201.97 253.4 1201.97 245.47V109.816ZM1357.7 173.026L1338.88 178.353C1337.7 175.216 1335.95 172.168 1333.64 169.209C1331.4 166.19 1328.32 163.705 1324.41 161.751C1320.51 159.798 1315.5 158.822 1309.41 158.822C1301.06 158.822 1294.11 160.745 1288.55 164.592C1283.04 168.38 1280.29 173.204 1280.29 179.063C1280.29 184.272 1282.18 188.385 1285.97 191.403C1289.76 194.422 1295.68 196.937 1303.73 198.95L1323.97 203.921C1336.16 206.88 1345.24 211.408 1351.22 217.504C1357.2 223.541 1360.19 231.324 1360.19 240.853C1360.19 248.666 1357.94 255.649 1353.44 261.805C1349 267.96 1342.79 272.813 1334.8 276.364C1326.81 279.916 1317.52 281.691 1306.92 281.691C1293.01 281.691 1281.5 278.673 1272.39 272.636C1263.27 266.599 1257.5 257.78 1255.08 246.18L1274.96 241.208C1276.86 248.547 1280.44 254.051 1285.7 257.721C1291.03 261.39 1297.99 263.225 1306.57 263.225C1316.33 263.225 1324.09 261.154 1329.83 257.011C1335.63 252.809 1338.53 247.778 1338.53 241.918C1338.53 237.184 1336.87 233.218 1333.56 230.022C1330.24 226.767 1325.15 224.34 1318.29 222.742L1295.56 217.416C1283.07 214.456 1273.9 209.869 1268.04 203.655C1262.24 197.381 1259.34 189.539 1259.34 180.129C1259.34 172.434 1261.5 165.628 1265.82 159.71C1270.2 153.791 1276.15 149.145 1283.66 145.771C1291.24 142.398 1299.82 140.711 1309.41 140.711C1322.9 140.711 1333.5 143.67 1341.19 149.589C1348.94 155.507 1354.45 163.32 1357.7 173.026Z" fill="white"/>
</g>
<defs>
<clipPath id="clip0_901_2">
<rect width="1373" height="337" fill="white"/>
</clipPath>
</defs>
</svg>
